<?xml version="1.0" standalone="no"?>
<!DOCTYPE svg PUBLIC "-//W3C//DTD SVG 20010904//EN"
 "http://www.w3.org/TR/2001/REC-SVG-20010904/DTD/svg10.dtd">
<svg version="1.0" xmlns="http://www.w3.org/2000/svg"
 width="348.000000pt" height="326.000000pt" viewBox="0 0 348.000000 326.000000"
 preserveAspectRatio="xMidYMid meet">

<g transform="translate(0.000000,326.000000) scale(0.100000,-0.100000)"
fill="#000000" stroke="none">
<path d="M1453 3065 c-208 -65 -331 -300 -250 -478 26 -58 77 -114 110 -122
21 -6 22 -11 19 -85 -5 -102 19 -226 61 -310 21 -42 58 -91 105 -138 l72 -74
2 -91 c3 -199 -4 -248 -49 -349 -29 -65 -43 -66 -43 -5 0 23 -9 91 -20 151
-11 60 -20 122 -20 138 0 43 -17 33 -24 -14 -4 -24 -18 -78 -31 -121 -14 -43
-30 -110 -36 -150 -6 -40 -14 -75 -17 -79 -4 -3 -27 -8 -52 -10 l-44 -3 -27
80 c-32 95 -34 138 -13 282 28 187 13 286 -79 518 l-54 135 -6 -98 c-15 -227
-6 -306 67 -542 19 -63 35 -128 36 -145 0 -26 -6 -20 -44 46 -25 42 -69 109
-100 149 -48 64 -56 82 -66 144 -32 201 -40 236 -66 299 -25 58 -150 245 -158
236 -7 -10 24 -274 38 -321 21 -72 74 -158 151 -247 36 -41 65 -78 65 -82 0
-10 -97 45 -179 101 -90 61 -136 78 -226 85 -44 3 -95 8 -113 11 l-34 5 19
-31 c25 -44 102 -114 152 -139 22 -12 67 -28 99 -36 59 -14 271 -32 261 -21
-3 3 -52 10 -110 16 -57 6 -133 19 -169 30 -70 21 -166 83 -194 124 l-16 26
68 0 c94 0 139 -16 272 -96 64 -38 130 -76 148 -83 17 -7 29 -17 27 -21 -3 -5
3 -11 12 -14 10 -3 32 -27 50 -53 49 -73 173 -330 173 -359 0 -2 -27 -4 -61
-4 -139 0 -283 54 -424 159 -73 55 -144 90 -219 107 -30 7 -30 7 20 -56 99
-128 163 -175 270 -200 27 -7 55 -14 62 -16 8 -2 -3 -17 -30 -37 -27 -21 -54
-54 -73 -92 -25 -52 -30 -74 -33 -162 -4 -87 -1 -115 22 -192 31 -109 83 -215
165 -337 72 -108 110 -146 54 -54 -67 110 -130 232 -161 310 -76 192 -72 385
9 483 55 67 67 70 281 68 l128 -1 21 -43 c12 -23 28 -50 37 -59 8 -10 11 -18
6 -18 -5 0 -4 -4 1 -8 17 -12 275 -289 275 -296 0 -3 -12 -1 -27 5 -16 6 -61
17 -101 25 -41 8 -87 23 -102 34 -49 35 -136 70 -195 80 -59 10 -170 0 -248
-21 l-42 -11 65 -25 c137 -52 152 -55 345 -63 196 -8 237 -16 316 -56 52 -26
136 -128 184 -224 27 -53 75 -173 75 -187 0 -4 -19 11 -42 33 -56 53 -199 159
-251 185 -80 41 -164 67 -287 88 -69 12 -135 24 -147 26 -31 7 -29 -8 6 -48
60 -67 183 -118 349 -142 174 -25 232 -46 301 -111 83 -77 118 -150 130 -273
6 -51 13 -96 16 -99 3 -3 5 28 4 69 -1 55 5 88 21 129 40 103 65 135 138 178
38 23 80 56 94 74 55 72 108 207 108 272 -1 30 -2 29 -80 -51 -94 -96 -129
-150 -166 -247 -15 -39 -40 -89 -55 -111 -15 -22 -36 -64 -46 -92 -10 -29 -21
-53 -24 -53 -4 0 -9 18 -13 40 -10 61 -65 228 -94 285 -14 28 -27 68 -28 90
-2 39 -18 109 -64 283 -26 101 -24 125 9 77 38 -56 54 -114 60 -220 5 -97 5
-98 11 -40 9 79 -5 176 -31 228 -24 46 -87 127 -99 127 -10 0 23 -157 58 -270
30 -95 48 -180 39 -180 -3 0 -34 39 -70 88 -35 48 -103 126 -151 173 l-86 87
0 53 c0 90 34 232 64 272 33 43 61 120 77 212 12 72 7 255 -10 328 -8 35 -7
39 14 47 35 13 38 27 4 22 -40 -6 -73 26 -100 97 -27 74 -27 116 2 147 29 31
60 30 98 -2 l31 -26 26 21 27 21 -29 0 c-16 0 -54 9 -84 19 -49 16 -60 25 -97
80 -47 68 -74 144 -72 205 l1 41 9 -50 c11 -69 38 -137 52 -128 6 4 8 0 4 -10
-4 -10 -2 -16 5 -14 6 1 13 -4 16 -12 3 -10 0 -11 -9 -5 -8 4 -2 -7 12 -26 14
-18 36 -40 50 -48 14 -9 10 -3 -8 12 -18 15 -33 32 -33 38 0 5 14 -2 31 -17
49 -40 104 -65 148 -65 55 0 60 15 5 18 -87 3 -177 73 -221 169 -14 29 -26 68
-27 86 -2 18 -8 42 -14 54 -17 31 -15 57 6 83 l18 22 60 -31 c33 -17 103 -44
155 -61 81 -27 116 -33 254 -40 88 -5 175 -13 193 -19 18 -5 30 -6 27 -1 -16
25 -146 52 -295 60 -114 6 -174 14 -225 30 -82 26 -165 66 -165 80 0 17 104
92 175 127 154 73 324 81 463 22 54 -23 94 -57 85 -72 -3 -6 -1 -7 5 -4 15 10
62 -50 63 -81 2 -47 -3 -76 -16 -102 -20 -38 -86 -96 -128 -114 -20 -8 -36
-21 -35 -27 2 -7 -26 -27 -60 -46 -51 -26 -75 -33 -122 -33 -125 0 -229 38
-321 119 -40 34 -50 39 -37 19 10 -15 13 -28 7 -30 -5 -2 7 -19 28 -38 32 -29
34 -30 10 -4 -42 47 -32 49 30 4 57 -41 161 -80 213 -80 43 0 46 -18 4 -26
-129 -24 -241 36 -335 180 -46 69 -52 63 -10 -10 42 -73 128 -148 198 -172 64
-23 39 -30 -31 -10 -40 12 -120 82 -160 138 -9 14 -7 5 6 -19 13 -24 43 -61
67 -82 79 -70 164 -77 319 -25 56 19 139 54 184 78 77 41 172 120 197 163 10
19 15 16 70 -42 67 -70 97 -135 107 -237 l7 -66 -45 -19 c-52 -22 -93 -67
-108 -119 -13 -48 -13 -52 7 -133 15 -66 15 -70 -2 -89 -10 -11 -14 -20 -8
-20 5 0 18 9 28 20 17 19 17 22 -4 86 -23 70 -20 95 7 71 10 -8 26 -17 37 -19
31 -6 25 -109 -10 -180 -30 -61 -45 -79 -52 -62 -2 7 -13 9 -25 6 -19 -5 -19
-6 6 -16 l26 -11 -26 -48 c-43 -81 -23 -61 40 40 64 103 82 155 89 260 3 38
12 88 22 113 10 27 20 101 26 187 8 118 7 153 -6 209 -21 93 -68 176 -135 237
-184 171 -457 210 -681 97 -72 -37 -89 -33 -27 6 53 34 108 54 170 61 27 3 48
10 48 15 0 23 -43 89 -73 112 -70 54 -189 71 -284 41z m55 -46 c-43 -46 -68
-117 -68 -198 0 -65 -10 -58 -35 23 -15 51 -16 67 -6 105 15 60 66 109 112
109 l34 0 -37 -39z m72 9 c-45 -27 -60 -44 -87 -96 -31 -61 -47 -56 -21 5 31
72 88 123 138 123 20 0 14 -6 -30 -32z m90 14 c0 -5 -16 -16 -35 -25 -40 -19
-125 -94 -125 -110 0 -6 21 9 48 34 63 61 95 79 134 78 l33 -1 -30 -7 c-29 -7
-75 -28 -75 -35 0 -2 20 3 45 11 56 19 90 11 108 -25 l14 -29 -48 5 c-59 6
-109 -3 -135 -24 -10 -8 -13 -12 -5 -8 9 4 12 3 7 -4 -4 -6 -14 -8 -24 -5 -9
3 -14 3 -10 -1 4 -4 -9 -22 -28 -38 -19 -17 -42 -45 -51 -62 -14 -27 -9 -24
40 22 70 65 146 102 207 101 l45 -1 -50 -8 c-77 -11 -205 -86 -189 -111 3 -5
-5 -13 -18 -18 -13 -5 -32 -18 -42 -30 -42 -47 -46 -21 -10 64 14 33 28 67 31
75 6 13 5 13 -12 0 -32 -26 18 60 57 97 42 41 118 76 118 55z m-271 -49 c-27
-52 -25 -126 6 -190 13 -29 22 -53 20 -53 -2 0 -22 31 -45 68 -29 50 -40 79
-40 109 0 47 8 73 22 73 5 0 16 7 24 15 27 26 32 16 13 -22z m-79 -73 c0 -50
38 -128 80 -163 42 -36 38 -45 -17 -40 -68 7 -109 21 -143 50 -33 27 -37 49
-16 79 14 18 15 18 26 -11 14 -37 46 -72 83 -92 42 -21 44 -9 3 17 -57 35 -97
106 -77 139 6 10 12 3 21 -24 13 -41 71 -110 104 -126 12 -6 2 7 -21 28 -23
21 -48 52 -57 70 -16 32 -22 94 -9 106 15 16 23 4 23 -33z m-32 -197 c26 -12
26 -13 2 -7 -31 7 -72 36 -78 55 -3 8 7 3 22 -11 15 -13 39 -30 54 -37z m1001
-7 c14 -14 22 -26 19 -26 -3 0 11 -17 30 -37 19 -21 46 -62 59 -91 32 -73 29
-87 -4 -22 -16 30 -39 61 -53 69 -21 13 -19 9 10 -24 19 -22 42 -59 49 -83 10
-29 17 -38 23 -30 5 9 8 10 8 1 0 -27 -19 -21 -46 15 -15 20 -48 56 -72 79
-36 33 -46 50 -49 80 -2 21 -15 60 -28 86 l-25 48 28 -19 c15 -11 38 -32 51
-46z m-965 -29 l57 -13 -36 -17 c-69 -33 -155 -13 -155 35 l0 21 23 -21 c33
-31 78 -45 108 -33 21 9 20 10 -18 10 -29 1 -50 8 -72 27 -44 37 -42 63 2 30
18 -14 59 -32 91 -39z m35 -53 c-28 -28 -149 -31 -149 -5 0 6 13 6 31 1 30 -9
103 0 116 14 4 3 9 6 12 6 3 0 -2 -7 -10 -16z m-4 -44 c-36 -38 -88 -49 -115
-25 -29 26 -25 34 18 28 22 -3 51 1 72 10 52 23 57 20 25 -13z m502 -27 c-20
-2 -52 -2 -70 0 -17 2 0 4 38 4 39 0 53 -2 32 -4z m-502 -14 c-12 -18 -54 -29
-77 -19 -22 8 -21 9 7 10 17 0 37 5 45 10 20 13 33 13 25 -1z m-13 -51 c-5
-20 -24 -23 -53 -8 -29 16 -23 25 20 25 32 1 37 -2 33 -17z m63 -139 c10 -29
31 -75 47 -102 26 -44 29 -67 9 -67 -30 0 -115 281 -94 313 5 7 10 -9 14 -39
4 -28 14 -75 24 -105z m82 -81 c23 -24 25 -48 3 -48 -11 0 -63 100 -74 140 -4
14 4 6 19 -20 15 -25 38 -57 52 -72z m-649 -44 c40 -77 71 -175 78 -244 l6
-55 -48 82 c-26 46 -49 81 -51 79 -2 -2 16 -46 41 -97 50 -101 51 -103 36 -94
-19 12 -90 129 -110 182 -18 49 -40 187 -40 257 l0 29 29 -40 c16 -22 43 -67
59 -99z m567 -51 c14 -32 36 -71 49 -88 13 -16 31 -46 41 -65 10 -19 28 -48
41 -63 45 -53 23 -52 -26 1 -81 86 -162 276 -159 372 1 26 4 18 14 -33 8 -37
26 -93 40 -124z m-4 90 c7 -21 23 -55 36 -75 12 -21 23 -48 23 -60 -1 -22 -1
-22 -15 -4 -24 32 -75 176 -62 176 3 0 11 -17 18 -37z m-277 -147 c47 -125 66
-218 65 -309 l-1 -72 -20 83 c-11 46 -22 82 -24 80 -2 -3 3 -44 12 -92 8 -48
14 -111 12 -139 -3 -51 -4 -48 -48 98 -44 146 -45 154 -48 310 -2 102 0 156 6
150 5 -5 26 -54 46 -109z m1296 46 c0 -25 -43 -131 -55 -136 -8 -3 -28 0 -45
5 -35 13 -40 41 -14 78 29 40 114 80 114 53z m-974 -628 c22 -123 21 -241 -1
-359 -23 -121 -33 -104 -34 59 -1 124 -12 133 -21 18 l-6 -77 -13 73 c-8 45
-10 96 -6 130 7 60 56 255 62 248 2 -2 11 -43 19 -92z m-744 -71 c54 -34 112
-70 129 -78 63 -33 18 -25 -56 9 -43 20 -81 36 -84 36 -16 -1 100 -62 144 -76
89 -29 88 -44 -1 -20 -79 21 -152 65 -221 132 -108 106 -78 105 89 -3z m653
-230 c10 -43 24 -91 32 -106 8 -16 12 -32 8 -35 -8 -8 -65 59 -104 123 -46 76
-47 83 -14 88 63 9 60 11 78 -70z m-134 -262 c31 -10 73 -28 95 -39 l39 -21
-125 -1 c-126 0 -193 11 -274 45 -21 9 -36 18 -34 20 2 3 29 9 59 14 72 13
173 6 240 -18z m1025 -257 c-30 -88 -77 -164 -129 -209 -22 -19 -42 -33 -44
-31 -2 2 15 34 37 72 54 92 51 105 -5 22 -24 -36 -49 -69 -55 -73 -20 -12 41
98 92 167 42 57 118 132 125 124 2 -2 -8 -34 -21 -72z m-1005 0 c168 -31 328
-90 389 -144 18 -16 20 -20 7 -16 -10 3 -81 17 -158 31 -183 33 -294 75 -338
129 -17 21 -9 21 100 0z"/>
<path d="M1435 2969 c-4 -6 -5 -12 -2 -15 2 -3 7 2 10 11 7 17 1 20 -8 4z"/>
<path d="M1647 2970 c-16 -5 -34 -13 -41 -19 -7 -6 -15 -9 -18 -6 -2 3 -20
-12 -39 -31 l-34 -37 44 32 c53 37 137 64 178 56 23 -4 24 -4 8 4 -25 12 -61
12 -98 1z"/>
<path d="M1824 2859 c-34 -5 -79 -16 -100 -24 -21 -9 -28 -13 -14 -10 14 3 68
10 120 17 115 13 222 -4 291 -48 27 -17 38 -21 30 -10 -47 57 -203 93 -327 75z"/>
<path d="M1928 2813 c6 -2 18 -2 25 0 6 3 1 5 -13 5 -14 0 -19 -2 -12 -5z"/>
<path d="M2020 2794 c59 -16 128 -53 151 -80 8 -10 -3 -6 -26 9 -73 50 -165
72 -300 70 -66 -1 -136 -5 -155 -10 -23 -6 20 -9 130 -8 157 0 168 -2 234 -28
38 -15 89 -43 113 -63 45 -37 53 -33 29 15 -26 50 -141 112 -205 110 -17 0 -6
-6 29 -15z"/>
<path d="M1715 2741 c-26 -5 18 -9 120 -12 140 -5 169 -9 229 -31 37 -15 81
-39 97 -54 16 -15 29 -23 29 -17 0 21 -71 71 -123 87 -107 33 -247 44 -352 27z"/>
<path d="M1545 2699 c17 -3 112 -7 212 -8 240 -1 309 -17 393 -88 30 -25 32
-25 21 -5 -15 27 -70 63 -136 87 -43 16 -84 19 -285 20 -129 1 -221 -2 -205
-6z"/>
<path d="M1560 2658 c38 -18 61 -21 150 -19 164 3 289 -14 365 -48 70 -32 80
-24 13 10 -63 32 -162 49 -293 49 -106 0 -191 8 -258 25 -12 2 -2 -5 23 -17z"/>
<path d="M1475 2626 c22 -20 39 -40 38 -45 -6 -26 139 -111 232 -136 35 -9 95
-14 150 -13 l90 1 -105 7 c-58 5 -134 17 -171 29 -65 20 -196 97 -186 108 3 3
18 -4 34 -15 113 -80 257 -108 418 -82 35 6 20 6 -50 3 -57 -3 -127 0 -164 7
-76 14 -175 55 -166 70 3 6 -2 13 -12 17 -10 3 -40 21 -68 38 -76 48 -84 50
-40 11z"/>
<path d="M1650 2627 c8 -9 180 -34 283 -42 78 -5 126 -16 192 -40 19 -7 19 -7
-1 8 -30 23 -89 35 -254 52 -80 8 -163 18 -185 21 -22 4 -38 4 -35 1z"/>
<path d="M1491 2564 c1 -17 104 -95 164 -124 114 -54 272 -63 361 -19 21 11
30 17 19 14 -106 -31 -242 -31 -330 0 -56 19 -146 74 -187 113 -16 14 -28 22
-27 16z"/>
<path d="M1620 2551 c8 -6 44 -20 79 -31 67 -21 155 -24 301 -10 59 5 39 7
-95 7 -163 1 -185 4 -280 38 -16 6 -17 5 -5 -4z"/>
<path d="M1637 2369 c7 -7 15 -10 18 -7 3 3 -2 9 -12 12 -14 6 -15 5 -6 -5z"/>
<path d="M1922 2222 c-7 -5 15 -8 50 -8 46 0 81 -7 128 -27 35 -14 66 -24 70
-21 9 10 -40 43 -78 54 -44 12 -152 13 -170 2z"/>
<path d="M1512 2178 c-19 -19 -14 -29 13 -22 22 5 25 2 36 -40 6 -26 15 -49
20 -52 13 -8 11 6 -7 59 -17 51 -43 74 -62 55z"/>
<path d="M1923 2075 c13 -27 51 -52 90 -59 15 -2 31 -7 37 -11 5 -3 10 -1 10
5 0 6 4 9 9 6 5 -3 12 1 15 10 4 12 10 13 19 6 9 -8 12 -3 13 17 l1 28 -39
-14 c-42 -14 -73 -10 -129 18 l-37 18 11 -24z"/>
<path d="M1731 1781 c30 -54 81 -95 182 -146 77 -38 81 -42 92 -85 36 -143
129 -232 271 -261 50 -10 89 -10 208 1 168 15 224 8 298 -39 83 -53 113 -121
111 -251 -2 -125 -50 -322 -123 -502 -16 -40 -27 -74 -25 -76 5 -6 62 119 98
213 51 136 70 232 70 350 0 96 -3 117 -25 165 -33 72 -103 135 -175 156 -45
13 -86 14 -241 9 -176 -7 -190 -6 -243 14 -32 12 -77 40 -102 61 -49 44 -97
128 -97 171 l0 27 47 -14 c64 -19 117 -18 135 4 28 32 31 47 4 20 -31 -32 -52
-34 -127 -12 -140 41 -251 104 -332 187 l-51 52 25 -44z"/>
<path d="M2160 1778 c-14 -5 -38 -10 -53 -10 -50 -2 -14 -16 58 -23 50 -4 66
-3 55 4 -8 6 -24 11 -35 11 -19 1 -19 1 -2 11 9 6 26 8 36 4 10 -3 29 -1 42 4
20 7 15 9 -26 9 -27 0 -61 -4 -75 -10z"/>
<path d="M1684 1730 c3 -25 11 -97 16 -160 12 -130 31 -223 60 -287 26 -60 31
-54 9 12 -10 30 -23 92 -30 137 -26 187 -50 332 -56 337 -3 4 -3 -14 1 -39z"/>
<path d="M2220 1699 c-13 -6 -36 -7 -50 -4 -19 4 -21 3 -10 -5 21 -14 53 -12
76 5 22 17 19 18 -16 4z"/>
</g>
</svg>
